<?xml version="1.0" encoding="UTF-8"?><svg id="a" xmlns="http://www.w3.org/2000/svg" viewBox="0 0 120 120"><defs><style>.b{fill:#054752;}.c{fill:#fff;}.d{fill:#9aed66;}</style></defs><path class="b" d="M119.5,71.27c-3.12-18.41-20.58-30.81-38.99-27.68l5.44-30.83-19.68-3.47c-1.7,3.7-9.1,20.6-12.69,39.7,7.33,5,12.7,12.84,14.3,22.29,1.71,10.08-1.24,19.87-7.26,27.17,1.48,1.8,3.17,3.46,5.1,4.97,7.71,6.02,17.03,8.38,26.1,6.85,18.41-3.12,30.8-20.58,27.68-38.99Z"/><path class="c" d="M53.21,51.08c.13-.7,.25-1.41,.38-2.1-6.97-4.75-15.71-6.92-24.68-5.4l5.44-30.82-19.68-3.46c-1.76,3.84-9.65,21.86-13.07,41.79-2.75,15.97-2.62,33.18,5.84,45.3,1.81,2.6,4.02,4.97,6.67,7.04,7.71,6.02,17.03,8.38,26.1,6.85,8.33-1.41,15.43-5.77,20.41-11.82-.56-.67-1.08-1.36-1.57-2.07-8.47-12.11-8.6-29.31-5.84-45.3Z"/><path class="d" d="M67.89,71.27c-1.6-9.43-6.97-17.29-14.3-22.29l-.38,2.09c-2.75,15.97-2.61,33.19,5.84,45.3,.49,.71,1.01,1.39,1.57,2.07,6.02-7.32,8.98-17.1,7.26-27.17Z"/></svg>